<svg height="50" viewBox="-22 0 512 512" width="50" xmlns="http://www.w3.org/2000/svg"><path d="m197.976562 512-8.046874-61.917969 8.046874-41.304687h72.691407l12.386719 60.1875-12.386719 43.035156zm0 0" fill="#e8e8e8"/><path d="m311.765625 429.980469c6.140625 7.925781 12.582031 18.0625 17.71875 30.410156 3.15625 7.574219 5.828125 15.980469 7.609375 25.214844 1.605469 8.160156 2.527344 16.953125 2.527344 26.394531h-50.523438l-18.429687-41.007812zm0 0" fill="#282c33"/><path d="m156.878906 429.980469c-6.140625 7.925781-12.582031 18.0625-17.722656 30.410156-3.152344 7.574219-5.824219 15.980469-7.605469 25.214844-1.605469 8.160156-2.527343 16.953125-2.527343 26.394531h50.523437l18.429687-41.007812zm0 0" fill="#282c33"/><path d="m295.492188 0c-86.199219 0-129.285157 27-143.164063 37.894531-3.476563 2.730469-7.941406 3.855469-12.296875 3.097657-107.492188-18.777344-149.574219 67.523437-127.914062 185.441406l7.253906 12.160156h410.066406l27.089844-12.160156c31.175781-151.519532-53.046875-226.433594-161.035156-226.433594zm0 0" fill="#394048"/><path d="m127.851562 39.296875c-98.464843-10.332031-136.554687 73.785156-115.734374 187.136719l7.253906 12.160156h30.90625l-7.253906-12.160156c-18.484376-100.617188 9.453124-178.195313 84.828124-187.136719zm0 0" fill="#31363e"/><path d="m307.523438 478.726562s-3.582032 17.40625-18.429688 33.273438h-18.425781v-33.273438c8.640625-6.042968 15.601562-12.335937 21.160156-18.335937zm0 0" fill="#31363e"/><path d="m311.765625 429.980469s-4.742187 14.046875-19.9375 30.410156c-5.558594 6-12.519531 12.292969-21.160156 18.335937v-69.949218h20.148437s9.992188 7.074218 20.9375 21.183594zm0 0" fill="#394048"/><path d="m161.121094 478.726562s3.582031 17.40625 18.425781 33.273438h18.429687v-33.273438c-8.640624-6.042968-15.601562-12.335937-21.160156-18.335937zm0 0" fill="#31363e"/><path d="m156.878906 429.980469s4.742188 14.046875 19.933594 30.410156c5.558594 6 12.523438 12.292969 21.164062 18.335937v-69.949218h-20.148437s-9.992187 7.074218-20.9375 21.183594zm0 0" fill="#394048"/><path d="m251.214844 512-7.097656-67.398438h-19.589844l-7.097656 67.398438zm0 0" fill="#d05e60"/><path d="m248.988281 406.226562h-28.308593l-1.726563 28.910157c-.195313 3.332031 1.351563 6.527343 4.09375 8.433593l7.378906 5.128907c2.652344 1.84375 6.167969 1.84375 8.816407 0l7.378906-5.128907c2.742187-1.90625 4.292968-5.101562 4.09375-8.433593zm0 0" fill="#e16668"/><path d="m468.644531 254.761719c0 21.652343-17.554687 39.207031-39.207031 39.207031s-39.207031-17.554688-39.207031-39.207031c0-21.652344 17.554687-39.207031 39.207031-39.207031s39.207031 17.554687 39.207031 39.207031zm0 0" fill="#d7a37e"/><path d="m425.507812 183.707031c-1.316406-5.960937-7.285156-9.667969-13.175781-8.082031-22.523437 6.050781-78.03125 15.898438-127.261719-15.863281-93.542968-57.414063-200.742187-29.285157-242 47.398437-2.871093 5.339844-4.375 11.3125-4.375 17.378906v.089844c0 106.207032 87.585938 192.304688 195.628907 192.304688 108.039062 0 195.625-86.097656 195.625-192.304688 0-14.042968-1.535157-27.734375-4.441407-40.921875zm0 0" fill="#f1be8c"/><path d="m69.601562 224.628906c0-6.121094 1.511719-12.148437 4.414063-17.539062 23.933594-44.425782 70.011719-72.535156 122.738281-77.132813-65.203125-5.570312-125.179687 24.226563-153.683594 77.203125-1.433593 2.667969-2.527343 5.492188-3.261718 8.410156-.203125 0-.398438-.015624-.601563-.015624-21.652343 0-39.207031 17.554687-39.207031 39.207031 0 21.652343 17.554688 39.207031 39.207031 39.207031 4.484375 0 8.386719-.765625 11.769531-2.152344 27.726563 73.070313 99.347657 125.117188 183.34375 125.117188 5.203126 0 10.355469-.207032 15.453126-.597656-100.816407-7.746094-180.171876-90.613282-180.171876-191.707032zm0 0" fill="#d7a37e"/><path d="m330.410156 264.066406c-4.265625 0-7.726562-3.457031-7.726562-7.726562v-16.609375c0-4.265625 3.460937-7.726563 7.726562-7.726563 4.269532 0 7.726563 3.460938 7.726563 7.726563v16.609375c0 4.269531-3.457031 7.726562-7.726563 7.726562zm0 0" fill="#394048"/><path d="m343.132812 291.527344h-25.445312c-4.269531 0-7.726562-3.457032-7.726562-7.726563 0-4.265625 3.457031-7.726562 7.726562-7.726562h25.445312c4.269532 0 7.726563 3.460937 7.726563 7.726562 0 4.269531-3.457031 7.726563-7.726563 7.726563zm0 0" fill="#e98e8f"/><path d="m138.234375 264.066406c-4.269531 0-7.726563-3.457031-7.726563-7.726562v-16.609375c0-4.265625 3.457032-7.726563 7.726563-7.726563 4.265625 0 7.726563 3.460938 7.726563 7.726563v16.609375c0 4.269531-3.460938 7.726562-7.726563 7.726562zm0 0" fill="#394048"/><path d="m150.957031 291.527344h-25.449219c-4.265624 0-7.726562-3.457032-7.726562-7.726563 0-4.265625 3.460938-7.726562 7.726562-7.726562h25.449219c4.265625 0 7.726563 3.460937 7.726563 7.726562 0 4.269531-3.460938 7.726563-7.726563 7.726563zm0 0" fill="#e98e8f"/><path d="m234.320312 290.472656c-8.925781 0-17.3125-3.734375-23.003906-10.242187-2.808594-3.214844-2.480468-8.097657.734375-10.902344 3.210938-2.808594 8.09375-2.484375 10.902344.730469 2.757813 3.152344 6.898437 4.960937 11.367187 4.960937s8.613282-1.808593 11.371094-4.960937c2.808594-3.214844 7.6875-3.539063 10.902344-.730469 3.210938 2.804687 3.539062 7.6875.730469 10.902344-5.691407 6.507812-14.074219 10.242187-23.003907 10.242187zm0 0" fill="#394048"/></svg>